<svg id="Layer_1" enable-background="new 0 0 512 512" height="512" viewBox="0 0 512 512" width="512" xmlns="http://www.w3.org/2000/svg"><path clip-rule="evenodd" d="m256 14.491c39.647 0 71.787 22.595 71.787 74.702 0 52.108-32.14 94.35-71.787 94.35-39.648 0-71.787-42.242-71.787-94.35s32.141-74.702 71.787-74.702zm-230 434.923h460c5.508 0 10 4.492 10 10v28.096c0 5.508-4.492 10-10 10h-460c-5.508 0-10-4.492-10-10v-28.096c0-5.508 4.492-10 10-10zm337.791-24 15.47-122.646c.156-1.238-.772-2.251-2.015-2.251h-242.492c-1.243 0-2.171 1.014-2.015 2.251l15.47 122.646zm-107.791-77.417c12.685 0 22.968 10.283 22.968 22.968s-10.283 22.968-22.968 22.968-22.968-10.283-22.968-22.968 10.283-22.968 22.968-22.968zm-149.525 72.667c-5.508 0-10-4.492-10-10v-134.913c0-35.521 31.704-55.357 67.595-64.583 62.213-15.998 123.453-14.985 183.86 0 35.975 8.924 67.595 29.083 67.595 64.583v134.913c0 5.508-4.492 10-10 10h-25.07l14.618-115.897c1.36-10.78-6.958-20.251-17.827-20.251h-242.492c-10.869 0-19.187 9.471-17.827 20.251l14.618 115.897z" fill-rule="evenodd"/></svg>