<?xml version="1.0" encoding="iso-8859-1"?>
<!-- Generator: Adobe Illustrator 19.0.0, SVG Export Plug-In . SVG Version: 6.00 Build 0)  -->
<svg version="1.1" id="Capa_1" xmlns="http://www.w3.org/2000/svg" xmlns:xlink="http://www.w3.org/1999/xlink" x="0px" y="0px"
	 viewBox="0 0 512 512" style="enable-background:new 0 0 512 512;" xml:space="preserve">
<g>
	<g>
		<path fill="#6B7280" d="M228.622,363.094l-17.944,17.945c-5.86,5.86-15.351,5.86-21.211,0c-5.859-5.859-5.859-15.352,0-21.211l17.946-17.946
			c-11.867-3.039-21.193,0.01-28.581,7.341l-19.893,19.907c-11.722,11.753-11.737,30.714,0,42.451
			c11.309,11.294,31.055,11.367,42.422-0.015l19.922-19.922C228.598,384.31,231.671,375.003,228.622,363.094z"/>
	</g>
</g>
<g>
	<g>
		<path fill="#6B7280" d="M353.062,217.416c-11.623-11.622-30.584-11.794-42.423,0.015l-19.922,19.922c-5.654,5.669-8.789,13.213-8.789,21.226
			c0,2.56,0.833,4.922,1.452,7.337l17.943-17.943c5.859-5.859,15.352-5.859,21.211,0s5.859,15.352,0,21.211l-17.77,17.77
			c9.935,2.344,20.903,0.287,28.376-7.165l19.922-19.922C364.856,248.042,364.728,229.081,353.062,217.416z"/>
	</g>
</g>
<g>
	<g>
		<polygon fill="#6B7280" points="331,8.789 331,120 442.211,120 		"/>
	</g>
</g>
<g>
	<g>
		<path fill="#6B7280" d="M316,150c-8.284,0-15-6.716-15-15V0H91C74.431,0,61,13.431,61,30v452c0,16.569,13.431,30,30,30h330
			c16.569,0,30-13.431,30-30V150H316z M370.434,284.916L354.35,301c-18.675,18.675-47.992,23.719-72.739,9.106l-30.007,30.007
			c14.632,24.804,9.528,54.105-9.109,72.742L224.66,430.69c-21.142,21.142-55.209,26.142-79.39,8.555
			c-30.828-22.421-33.229-65.639-7.541-91.326l19.922-19.922c19.083-19.034,49.77-21.844,72.612-8.965l30.137-30.137
			c-14.614-24.747-9.569-54.078,9.106-72.753l19.922-19.922c29.142-29.18,86.107-20.786,99.38,24.9
			C395.386,243.761,387.106,268.244,370.434,284.916z"/>
	</g>
</g>
<g>
</g>
<g>
</g>
<g>
</g>
<g>
</g>
<g>
</g>
<g>
</g>
<g>
</g>
<g>
</g>
<g>
</g>
<g>
</g>
<g>
</g>
<g>
</g>
<g>
</g>
<g>
</g>
<g>
</g>
</svg>
